<?xml version="1.0" encoding="iso-8859-1"?>
<!-- Generator: Adobe Illustrator 19.0.0, SVG Export Plug-In . SVG Version: 6.00 Build 0)  -->
<svg version="1.1" id="Capa_1" xmlns="http://www.w3.org/2000/svg" xmlns:xlink="http://www.w3.org/1999/xlink" x="0px" y="0px"
	 viewBox="0 0 512 512" style="enable-background:new 0 0 512 512;" xml:space="preserve">
<circle style="fill:#FEAA00;" cx="256" cy="256" r="256"/>
<path style="fill:#FE8E00;" d="M512,256c0-25.148-3.643-49.441-10.401-72.401L381.667,63.667l-33.642,156.442l-39.124-39.124
	l-24.931,89.564l-89.564-89.564L57.185,385.515l111.036,111.036C195.6,506.545,225.163,512,256,512C397.385,512,512,397.385,512,256
	z"/>
<polygon style="fill:#FFFFFF;" points="403.051,317.667 315.667,317.667 337.051,63.667 381.667,63.667 "/>
<polygon style="fill:#E0E0E0;" points="381.667,63.667 359.524,63.667 359.524,317.667 403.051,317.667 "/>
<polygon style="fill:#D6283B;" points="328.716,162.667 390.001,162.667 388.149,140.667 330.568,140.667 "/>
<polygon style="fill:#C20231;" points="388.149,140.667 359.524,140.667 359.524,162.667 390.001,162.667 "/>
<polygon style="fill:#D6283B;" points="334.749,91 333.178,109.667 385.539,109.667 383.968,91 "/>
<polygon style="fill:#C20231;" points="383.968,91 359.524,91 359.524,109.667 385.539,109.667 "/>
<polygon style="fill:#37474F;" points="419.927,378.003 295.023,378.003 295.023,236.456 419.927,180.985 "/>
<polygon style="fill:#546E7A;" points="308.901,378.003 183.997,378.003 183.997,236.456 308.901,180.985 "/>
<g>
	<polygon style="fill:#455A64;" points="251.286,206.573 251.286,378.003 308.901,378.003 308.901,180.985 	"/>
	<polygon style="fill:#455A64;" points="194.406,378.003 69.502,378.003 69.502,236.456 194.406,180.985 	"/>
</g>
<rect x="57.19" y="363.66" style="fill:#607D8A;" width="372.63" height="21.858"/>
<rect x="251.95" y="363.66" style="fill:#546E7A;" width="177.86" height="21.858"/>
<g>
	<rect x="94.66" y="255.41" style="fill:#7AE5FE;" width="28.624" height="54.12"/>
	<rect x="139.41" y="255.41" style="fill:#7AE5FE;" width="28.624" height="54.12"/>
	<rect x="213.31" y="255.41" style="fill:#7AE5FE;" width="28.624" height="54.12"/>
</g>
<g>
	<rect x="260.07" y="255.41" style="fill:#00BED2;" width="28.624" height="54.12"/>
	<rect x="327.81" y="255.41" style="fill:#00BED2;" width="28.624" height="54.12"/>
	<rect x="372.57" y="255.41" style="fill:#00BED2;" width="28.624" height="54.12"/>
</g>
<g>
</g>
<g>
</g>
<g>
</g>
<g>
</g>
<g>
</g>
<g>
</g>
<g>
</g>
<g>
</g>
<g>
</g>
<g>
</g>
<g>
</g>
<g>
</g>
<g>
</g>
<g>
</g>
<g>
</g>
</svg>
