<?xml version="1.0" encoding="iso-8859-1"?>
<!-- Generator: Adobe Illustrator 19.0.0, SVG Export Plug-In . SVG Version: 6.00 Build 0)  -->
<svg version="1.1" id="Capa_1" xmlns="http://www.w3.org/2000/svg" xmlns:xlink="http://www.w3.org/1999/xlink" x="0px" y="0px"
	 viewBox="0 0 512 512" style="enable-background:new 0 0 512 512;" xml:space="preserve">
<circle style="fill:#0074A3;" cx="256" cy="256" r="256"/>
<path style="fill:#005C83;" d="M255.896,237.896l189.898,189.898c39.034-43.098,63.577-99.553,65.99-161.688L414,168.321
	L255.896,237.896z"/>
<polygon style="fill:#B9EAFF;" points="414,383.501 98,383.501 98,168.321 256,67.199 414,168.321 "/>
<polygon style="fill:#35CCFF;" points="414,168.321 256,67.199 255.667,67.413 255.667,383.501 414,383.501 "/>
<path style="fill:#2B9153;" d="M155.651,383.501v-94.969l5.007,0.006c17.994,0.023,32.599-14.545,32.624-32.539l0.01-7.255
	l-7.255-0.009c-13.814-0.017-29.179,8.565-33.935,20.694c-4.756-12.13-20.121-20.712-33.935-20.695l-7.255,0.009l0.01,7.255
	c0.024,17.994,14.63,32.562,32.624,32.539l5.007-0.006V383.5h7.098V383.501z"/>
<path style="fill:#005D5E;" d="M366.151,383.501v-94.969l5.007,0.006c17.994,0.023,32.599-14.545,32.624-32.539l0.01-7.255
	l-7.255-0.009c-13.814-0.017-29.179,8.565-33.935,20.694c-4.756-12.13-20.121-20.712-33.935-20.695l-7.255,0.009l0.01,7.255
	c0.024,17.994,14.63,32.562,32.624,32.539l5.007-0.006V383.5h7.098V383.501z"/>
<path style="fill:#2B9153;" d="M259.549,383.501v-94.969l5.007,0.006c17.994,0.023,32.599-14.545,32.624-32.539l0.01-7.255
	l-7.255-0.009c-13.814-0.017-29.179,8.565-33.935,20.694c-4.756-12.13-20.121-20.712-33.935-20.695l-7.255,0.009l0.01,7.255
	c0.024,17.994,14.63,32.562,32.624,32.539l5.007-0.006V383.5h7.098V383.501z"/>
<path style="fill:#005D5E;" d="M289.935,248.736c-13.814-0.018-29.179,8.565-33.935,20.694c-0.104-0.266-0.219-0.526-0.333-0.788
	v114.859h3.882v-94.969l5.007,0.006c17.994,0.023,32.599-14.544,32.624-32.539l0.01-7.254L289.935,248.736z"/>
<path style="fill:#2B9153;" d="M206.151,383.501V231.032l5.007,0.006c17.994,0.023,32.599-14.545,32.624-32.539l0.01-7.255
	l-7.255-0.009c-13.814-0.017-29.179,8.565-33.935,20.694c-4.756-12.13-20.121-20.712-33.935-20.695l-7.255,0.009l0.01,7.255
	c0.024,17.994,14.63,32.562,32.624,32.539l5.007-0.006V383.5h7.098V383.501z"/>
<path style="fill:#005D5E;" d="M313.151,383.501V231.032l5.007,0.006c17.994,0.023,32.599-14.545,32.624-32.539l0.01-7.255
	l-7.255-0.009c-13.814-0.017-29.179,8.565-33.935,20.694c-4.756-12.13-20.121-20.712-33.935-20.695l-7.255,0.009l0.01,7.255
	c0.024,17.994,14.63,32.562,32.624,32.539l5.007-0.006V383.5h7.098V383.501z"/>
<path style="fill:#8C6239;" d="M21.142,358C60.555,448.625,150.871,512,256,512s195.445-63.375,234.858-154H21.142z"/>
<path style="fill:#754C24;" d="M255.667,358v153.997c0.111,0,0.222,0.003,0.333,0.003c105.129,0,195.445-63.375,234.858-154H255.667
	z"/>
<g>
</g>
<g>
</g>
<g>
</g>
<g>
</g>
<g>
</g>
<g>
</g>
<g>
</g>
<g>
</g>
<g>
</g>
<g>
</g>
<g>
</g>
<g>
</g>
<g>
</g>
<g>
</g>
<g>
</g>
</svg>
